# xmcd
#
# Track frame offsets:
#  150
#  11257
#  27654
#  42557
#  54128
#  69884
#  82623
#  95617
#  110358
#  121712
#  134089
#  150327
#  163401
#
# Disc length: 2370 seconds
#
# Revision: 0
# Processed by: cddbd v1.5.2PL0 Copyright (c) Steve Scherf et al.
# Submitted via: Collectorz.com_Music_Collector 6.11
#
DISCID=9a09400d
DTITLE=Carlton Moody - Meet Me In Paris Tennesee
DYEAR=1900
DGENRE=Country
TTITLE0=Tip Of My Tongue
TTITLE1=That Old Drive - In
TTITLE2=Meet Me In Paris
TTITLE3=Shannon
TTITLE4=State Of Tennesee
TTITLE5=One For The Road
TTITLE6=Cowboy Moon
TTITLE7=Shady Grove
TTITLE8=I've Got Your Number
TTITLE9=Second Fiddle
TTITLE10=Rebound
TTITLE11=Two Step Recovery
TTITLE12=Right Here Lovin' You
EXTD=
EXTT0=
EXTT1=
EXTT2=
EXTT3=
EXTT4=
EXTT5=
EXTT6=
EXTT7=
EXTT8=
EXTT9=
EXTT10=
EXTT11=
EXTT12=
PLAYORDER=
